<svg
   fill="#ffffff"
   width="22.687498"
   height="19.1625"
   version="1.1"
   id="lni_lni-folder"
   x="0px"
   y="0px"
   viewBox="0 0 60.499995 51.100001"
   xml:space="preserve"
   sodipodi:docname="folder-icon.svg"
   inkscape:export-filename="folder-icon-inverted.svg"
   inkscape:export-xdpi="96"
   inkscape:export-ydpi="96"
   xmlns:inkscape="http://www.inkscape.org/namespaces/inkscape"
   xmlns:sodipodi="http://sodipodi.sourceforge.net/DTD/sodipodi-0.dtd"
   xmlns="http://www.w3.org/2000/svg"
   xmlns:svg="http://www.w3.org/2000/svg"><defs
   id="defs1" /><sodipodi:namedview
   id="namedview1"
   pagecolor="#ffffff"
   bordercolor="#000000"
   borderopacity="0.25"
   inkscape:showpageshadow="2"
   inkscape:pageopacity="0.0"
   inkscape:pagecheckerboard="true"
   inkscape:deskcolor="#d1d1d1" />

<rect
   style="fill:#ffffff;fill-opacity:1;stroke:none;stroke-width:8;stroke-linecap:round;stroke-linejoin:round;stroke-opacity:1"
   id="rect1"
   width="55.704857"
   height="41.240376"
   x="1.8104727"
   y="7.0478868"
   ry="15.151261"
   rx="0" /><rect
   style="fill:#ffffff;fill-opacity:1;stroke:none;stroke-width:8;stroke-linecap:round;stroke-linejoin:round;stroke-opacity:1"
   id="rect2"
   width="35.890896"
   height="9.4465046"
   x="1.8689146"
   y="4.1689882"
   ry="4.7232523"
   rx="0" /><path
   d="M 59.2,13.1 V 9.8 C 59.2,6.4 56.5,3.7 53.1,3.7 H 30.9 L 30.6,2.9 C 29.9,1.1 28.2,0 26.3,0 H 6.1 C 2.7,0 4.7683717e-8,2.7 4.7683717e-8,6.1 V 45 C 4.7683717e-8,48.4 2.7,51.1 6.1,51.1 h 48.3 c 3.4,0 6.1,-2.7 6.1,-6.1 V 16.2 C 60.5,15 60,13.9 59.2,13.1 Z m -6.1,-5 c 0.9,0 1.6,0.7 1.6,1.6 v 1.9 H 34.1 L 32.7,8.1 Z M 56,45 c 0,0.9 -0.7,1.6 -1.6,1.6 H 6.1 C 5.2,46.6 4.5,45.9 4.5,45 V 6 C 4.5,5.1 5.2,4.4 6.1,4.4 l 20.3,0.1 4.1,10.2 c 0.3,0.9 1.2,1.4 2.1,1.4 h 23.3 c 0,0 0.1,0 0.1,0.1 z"
   id="path1"
   style="fill:#010101;fill-opacity:1;stroke:none;stroke-opacity:1" /></svg>
