<?xml version="1.0" encoding="utf-8"?>
<!-- Generator: Adobe Illustrator 26.3.1, SVG Export Plug-In . SVG Version: 6.00 Build 0)  -->
<svg version="1.1" id="Ebene_1" xmlns="http://www.w3.org/2000/svg" xmlns:xlink="http://www.w3.org/1999/xlink" x="0px" y="0px"
	 viewBox="0 0 1146 341" style="enable-background:new 0 0 1146 341;" xml:space="preserve">
<style type="text/css">
	.st0{opacity:0.25;fill:#FFFFFF;enable-background:new    ;}
	.st1{opacity:0.55;fill:#FFFFFF;enable-background:new    ;}
	.st2{fill:#FFFFFF;}
</style>
<g>
	
		<rect x="72.2" y="71.7" transform="matrix(0.7071 -0.7071 0.7071 0.7071 -70.4874 170.8237)" class="st0" width="197.5" height="197.5"/>
	
		<rect x="102.9" y="71.7" transform="matrix(0.7071 -0.7071 0.7071 0.7071 -61.5145 192.5006)" class="st1" width="197.5" height="197.5"/>
	
		<rect x="133.5" y="71.7" transform="matrix(0.7071 -0.7071 0.7071 0.7071 -52.5274 214.1775)" class="st2" width="197.5" height="197.5"/>
</g>
<g>
	<path class="st2" d="M463.8,114.9V154h-6.3v-3.6c-1.1,1.3-2.4,2.3-4,3s-3.4,1-5.3,1c-2.7,0-5.1-0.6-7.3-1.8
		c-2.2-1.2-3.9-2.9-5.1-5.1s-1.8-4.7-1.8-7.6s0.6-5.4,1.8-7.5s2.9-3.9,5.1-5.1s4.6-1.8,7.3-1.8c1.9,0,3.6,0.3,5.1,0.9
		c1.5,0.6,2.9,1.6,4,2.8v-14.4L463.8,114.9L463.8,114.9z M453.2,147.7c1.3-0.7,2.3-1.8,3-3.1s1.1-2.9,1.1-4.6s-0.4-3.3-1.1-4.6
		c-0.7-1.3-1.7-2.4-3-3.1c-1.3-0.7-2.7-1.1-4.3-1.1s-3,0.4-4.3,1.1s-2.3,1.8-3,3.1c-0.7,1.3-1.1,2.9-1.1,4.6s0.4,3.3,1.1,4.6
		s1.7,2.4,3,3.1c1.3,0.7,2.7,1.1,4.3,1.1S451.9,148.4,453.2,147.7z"/>
	<path class="st2" d="M481.7,120.1c-0.8-0.8-1.2-1.7-1.2-2.8s0.4-2.1,1.2-2.8c0.8-0.8,1.8-1.1,3-1.1s2.2,0.4,3,1.1
		c0.8,0.7,1.2,1.6,1.2,2.7c0,1.2-0.4,2.1-1.2,2.9s-1.8,1.2-3,1.2S482.5,120.9,481.7,120.1L481.7,120.1z M481.4,125.8h6.6V154h-6.6
		C481.4,154,481.4,125.8,481.4,125.8z"/>
	<path class="st2" d="M533.5,125.8v23.9c0,9.9-5.1,14.9-15.2,14.9c-2.7,0-5.3-0.3-7.7-1c-2.4-0.7-4.4-1.7-6-3l3-5
		c1.2,1,2.8,1.8,4.7,2.4c1.9,0.6,3.8,0.9,5.7,0.9c3.1,0,5.4-0.7,6.8-2.1s2.2-3.6,2.2-6.4V149c-1.1,1.2-2.5,2.2-4.1,2.8
		c-1.6,0.6-3.4,0.9-5.3,0.9c-2.7,0-5.1-0.6-7.2-1.7c-2.2-1.1-3.9-2.8-5.1-4.8c-1.2-2.1-1.9-4.4-1.9-7.1s0.6-5,1.9-7.1
		c1.2-2.1,3-3.6,5.1-4.8s4.6-1.7,7.2-1.7c2,0,3.9,0.3,5.6,1s3.1,1.7,4.2,3.1v-3.7L533.5,125.8L533.5,125.8z M524.7,144.9
		c1.6-1.5,2.4-3.4,2.4-5.8s-0.8-4.3-2.4-5.8c-1.6-1.5-3.7-2.2-6.1-2.2s-4.6,0.7-6.2,2.2c-1.6,1.5-2.4,3.4-2.4,5.8s0.8,4.3,2.4,5.8
		c1.6,1.5,3.7,2.2,6.2,2.2S523,146.4,524.7,144.9z"/>
	<path class="st2" d="M551.5,120.1c-0.8-0.8-1.2-1.7-1.2-2.8s0.4-2.1,1.2-2.8c0.8-0.8,1.8-1.1,3-1.1s2.2,0.4,3,1.1
		c0.8,0.7,1.2,1.6,1.2,2.7c0,1.2-0.4,2.1-1.2,2.9s-1.8,1.2-3,1.2S552.2,120.9,551.5,120.1L551.5,120.1z M551.1,125.8h6.6V154h-6.6
		C551.1,154,551.1,125.8,551.1,125.8z"/>
	<path class="st2" d="M592.3,152.5c-0.8,0.6-1.7,1.1-2.8,1.4s-2.3,0.5-3.5,0.5c-3.1,0-5.5-0.8-7.2-2.4s-2.5-4-2.5-7.1v-13.6h-4.6
		V126h4.6v-6.4h6.6v6.4h7.5v5.3h-7.5v13.4c0,1.4,0.3,2.4,1,3.1s1.6,1.1,2.9,1.1c1.5,0,2.7-0.4,3.7-1.2L592.3,152.5L592.3,152.5z"/>
	<path class="st2" d="M626.9,128.5c2.2,2,3.3,5,3.3,9V154H624v-3.4c-0.8,1.2-2,2.2-3.5,2.8c-1.5,0.6-3.3,1-5.4,1s-4-0.4-5.5-1.1
		c-1.6-0.7-2.8-1.7-3.7-3s-1.3-2.7-1.3-4.4c0-2.5,0.9-4.6,2.8-6.1s4.8-2.3,8.9-2.3h7.3v-0.4c0-2-0.6-3.5-1.8-4.5
		c-1.2-1.1-2.9-1.6-5.2-1.6c-1.6,0-3.1,0.2-4.7,0.7c-1.5,0.5-2.8,1.2-3.9,2.1l-2.6-4.8c1.5-1.1,3.2-2,5.3-2.6
		c2.1-0.6,4.3-0.9,6.6-0.9C621.6,125.6,624.7,126.5,626.9,128.5L626.9,128.5z M620.9,148.5c1.3-0.8,2.2-1.8,2.7-3.2v-3.3h-6.8
		c-3.8,0-5.7,1.2-5.7,3.7c0,1.2,0.5,2.1,1.4,2.9s2.3,1.1,4,1.1S619.6,149.2,620.9,148.5L620.9,148.5z"/>
	<path class="st2" d="M647.6,114.9h6.6V154h-6.6V114.9z"/>
	<path class="st2" d="M718.3,127.3c2.2,1.2,3.9,2.9,5.1,5.1s1.8,4.7,1.8,7.5s-0.6,5.4-1.8,7.6c-1.2,2.2-2.9,3.9-5.1,5.1
		c-2.2,1.2-4.6,1.8-7.3,1.8c-1.9,0-3.7-0.3-5.3-1s-2.9-1.7-4-3v3.6h-6.3v-39.1h6.6v14.4c1.1-1.2,2.5-2.2,4-2.8
		c1.5-0.6,3.2-0.9,5-0.9C713.7,125.5,716.1,126.1,718.3,127.3L718.3,127.3z M716.2,146.3c1.6-1.6,2.3-3.7,2.3-6.4s-0.8-4.8-2.3-6.4
		c-1.6-1.6-3.6-2.4-6-2.4c-1.6,0-3,0.4-4.3,1.1s-2.3,1.8-3,3.1c-0.7,1.3-1.1,2.9-1.1,4.6s0.4,3.3,1.1,4.6s1.7,2.4,3,3.1
		c1.3,0.7,2.7,1.1,4.3,1.1C712.6,148.7,714.6,147.9,716.2,146.3L716.2,146.3z"/>
	<path class="st2" d="M740.5,114.9h6.6V154h-6.6V114.9z"/>
	<path class="st2" d="M791.9,125.8V154h-6.3v-3.6c-1,1.3-2.4,2.2-4,2.9c-1.6,0.7-3.3,1-5.1,1c-3.8,0-6.7-1.1-8.9-3.1
		c-2.2-2.1-3.2-5.2-3.2-9.3v-16.1h6.6V141c0,2.5,0.6,4.4,1.7,5.7s2.8,1.9,4.9,1.9c2.3,0,4.2-0.7,5.6-2.2s2.1-3.6,2.1-6.3v-14.2
		L791.9,125.8L791.9,125.8z"/>
	<path class="st2" d="M835.9,142h-22.1c0.4,2.1,1.4,3.7,3,4.9s3.7,1.8,6.1,1.8c3.1,0,5.6-1,7.7-3.1l3.5,4.1
		c-1.3,1.5-2.9,2.6-4.8,3.4c-1.9,0.8-4.1,1.2-6.5,1.2c-3.1,0-5.8-0.6-8.2-1.9c-2.3-1.2-4.2-2.9-5.5-5.1c-1.3-2.2-1.9-4.7-1.9-7.5
		s0.6-5.2,1.9-7.4s3-3.9,5.2-5.1c2.2-1.2,4.7-1.8,7.5-1.8s5.2,0.6,7.4,1.8c2.2,1.2,3.8,2.9,5.1,5.1s1.8,4.7,1.8,7.6
		C836,140.6,836,141.2,835.9,142L835.9,142z M816.4,132.7c-1.5,1.2-2.3,2.9-2.7,5h16c-0.3-2-1.1-3.7-2.6-5c-1.4-1.3-3.2-1.9-5.4-1.9
		S817.9,131.4,816.4,132.7L816.4,132.7z"/>
	<path class="st2" d="M874.3,127.3c2.2,1.2,3.9,2.9,5.1,5.1s1.8,4.7,1.8,7.5s-0.6,5.4-1.8,7.6c-1.2,2.2-2.9,3.9-5.1,5.1
		c-2.2,1.2-4.6,1.8-7.3,1.8c-3.8,0-6.8-1.3-9-3.8v13.7h-6.6v-38.4h6.3v3.7c1.1-1.3,2.4-2.3,4-3c1.6-0.7,3.4-1,5.3-1
		C869.6,125.5,872.1,126.1,874.3,127.3L874.3,127.3z M872.2,146.3c1.6-1.6,2.3-3.7,2.3-6.4s-0.8-4.8-2.3-6.4c-1.6-1.6-3.6-2.4-6-2.4
		c-1.6,0-3,0.4-4.3,1.1s-2.3,1.8-3,3.1c-0.7,1.3-1.1,2.9-1.1,4.6s0.4,3.3,1.1,4.6s1.7,2.4,3,3.1c1.3,0.7,2.7,1.1,4.3,1.1
		C868.6,148.7,870.6,147.9,872.2,146.3L872.2,146.3z"/>
	<path class="st2" d="M912.7,125.5v6.3c-0.6-0.1-1.1-0.2-1.5-0.2c-2.6,0-4.6,0.8-6,2.2c-1.4,1.5-2.2,3.6-2.2,6.5V154h-6.6v-28.2h6.3
		v4.1C904.6,127,907.9,125.5,912.7,125.5L912.7,125.5z"/>
	<path class="st2" d="M927.6,120.1c-0.8-0.8-1.2-1.7-1.2-2.8s0.4-2.1,1.2-2.8c0.8-0.8,1.8-1.1,3-1.1s2.2,0.4,3,1.1
		c0.8,0.7,1.2,1.6,1.2,2.7c0,1.2-0.4,2.1-1.2,2.9s-1.8,1.2-3,1.2S928.4,120.9,927.6,120.1L927.6,120.1z M927.3,125.8h6.6V154h-6.6
		C927.3,154,927.3,125.8,927.3,125.8z"/>
	<path class="st2" d="M976,128.6c2.1,2.1,3.2,5.1,3.2,9.2V154h-6.6v-15.3c0-2.5-0.6-4.3-1.7-5.6s-2.8-1.9-5-1.9
		c-2.4,0-4.3,0.7-5.8,2.2s-2.1,3.6-2.1,6.3V154h-6.6v-28.2h6.3v3.6c1.1-1.3,2.5-2.3,4.1-2.9c1.7-0.7,3.5-1,5.6-1
		C971,125.6,973.8,126.6,976,128.6L976,128.6z"/>
	<path class="st2" d="M1013.5,152.5c-0.8,0.6-1.7,1.1-2.8,1.4s-2.3,0.5-3.5,0.5c-3.1,0-5.5-0.8-7.2-2.4s-2.5-4-2.5-7.1v-13.6h-4.6
		V126h4.6v-6.4h6.6v6.4h7.5v5.3h-7.5v13.4c0,1.4,0.3,2.4,1,3.1s1.6,1.1,2.9,1.1c1.5,0,2.7-0.4,3.7-1.2L1013.5,152.5L1013.5,152.5z"
		/>
</g>
<g>
	<path class="st2" d="M626.5,190.2c1.7,1.6,2.6,4.1,2.6,7.3v16.6h-2.4v-4.6c-0.8,1.5-2,2.7-3.7,3.6c-1.6,0.9-3.5,1.3-5.8,1.3
		c-2.9,0-5.2-0.7-6.9-2.1s-2.5-3.2-2.5-5.4s0.8-3.9,2.3-5.3c1.5-1.4,4-2,7.4-2h9v-2.1c0-2.4-0.7-4.3-2-5.6c-1.3-1.3-3.2-1.9-5.8-1.9
		c-1.7,0-3.4,0.3-5,0.9c-1.6,0.6-2.9,1.4-4,2.4l-1.2-1.8c1.3-1.2,2.9-2.1,4.7-2.7s3.8-1,5.8-1C622.3,187.8,624.8,188.6,626.5,190.2
		L626.5,190.2z M623.2,210.7c1.5-1,2.7-2.4,3.4-4.4v-4.9h-8.9c-2.6,0-4.4,0.5-5.6,1.4s-1.7,2.2-1.7,3.9s0.6,3,1.9,4
		c1.3,1,3,1.5,5.3,1.5C619.8,212.2,621.7,211.7,623.2,210.7z"/>
	<path class="st2" d="M675.1,188v26.1h-2.4v-5.6c-0.9,1.8-2.2,3.3-3.8,4.3c-1.7,1-3.7,1.5-6,1.5c-3.4,0-6.1-0.9-8-2.9
		c-1.9-1.9-2.9-4.6-2.9-8.2V188h2.5V203c0,2.9,0.8,5.2,2.2,6.7s3.6,2.3,6.3,2.3c2.9,0,5.3-0.9,7-2.8c1.7-1.8,2.6-4.3,2.6-7.4V188
		L675.1,188L675.1,188z"/>
	<path class="st2" d="M706.2,190.6c1.9,1.9,2.8,4.6,2.8,8.2v15.2h-2.5V199c0-2.9-0.7-5.2-2.2-6.7s-3.6-2.3-6.2-2.3
		c-3.1,0-5.5,0.9-7.2,2.8s-2.7,4.3-2.7,7.4v13.9h-2.5V188h2.4v5.6c0.9-1.8,2.2-3.3,4-4.3s3.9-1.6,6.3-1.6
		C701.7,187.8,704.3,188.7,706.2,190.6L706.2,190.6z"/>
	<path class="st2" d="M719.2,181.1c-0.4-0.4-0.6-0.9-0.6-1.4s0.2-1.1,0.6-1.4c0.4-0.4,0.9-0.6,1.5-0.6s1,0.2,1.5,0.6
		c0.4,0.4,0.6,0.9,0.6,1.4s-0.2,1.1-0.6,1.4c-0.4,0.4-0.9,0.6-1.5,0.6S719.6,181.4,719.2,181.1z M719.4,188h2.5v26.1h-2.5V188z"/>
	<path class="st2" d="M753.3,188l-11.8,26.1H739L727.2,188h2.7l10.4,23.4l10.5-23.4H753.3L753.3,188z"/>
	<path class="st2" d="M780.1,201.6h-22.5c0.1,2,0.6,3.8,1.5,5.4c1,1.6,2.3,2.8,3.9,3.7s3.5,1.3,5.6,1.3c1.7,0,3.3-0.3,4.7-0.9
		c1.5-0.6,2.7-1.5,3.6-2.7l1.5,1.6c-1.1,1.4-2.6,2.4-4.3,3.1c-1.7,0.7-3.6,1.1-5.6,1.1c-2.6,0-4.9-0.6-7-1.7c-2-1.1-3.6-2.7-4.8-4.7
		s-1.7-4.3-1.7-6.9s0.5-4.8,1.6-6.8s2.6-3.6,4.5-4.7s4-1.7,6.4-1.7s4.5,0.6,6.4,1.7c1.9,1.1,3.4,2.7,4.5,4.7s1.6,4.3,1.6,6.8
		L780.1,201.6L780.1,201.6z M762.8,191.2c-1.5,0.8-2.6,2-3.5,3.4s-1.4,3.2-1.5,5h20c-0.1-1.9-0.6-3.5-1.5-5s-2.1-2.6-3.5-3.4
		s-3.1-1.2-5-1.2S764.2,190.4,762.8,191.2L762.8,191.2z"/>
	<path class="st2" d="M794,189.3c1.7-1,3.8-1.5,6.2-1.5v2.4l-0.6-0.1c-2.9,0-5.2,0.9-6.8,2.7c-1.6,1.8-2.5,4.3-2.5,7.6v13.6h-2.5
		V188h2.4v5.7C791.1,191.8,792.4,190.3,794,189.3L794,189.3z"/>
	<path class="st2" d="M808,213.3c-1.9-0.6-3.4-1.4-4.5-2.4l1.2-2c1.1,0.9,2.4,1.6,4.1,2.2s3.4,0.9,5.3,0.9c2.6,0,4.6-0.4,5.8-1.3
		c1.2-0.9,1.9-2.1,1.9-3.6c0-1.1-0.3-2-1-2.6c-0.7-0.6-1.5-1.1-2.5-1.4c-1-0.3-2.4-0.6-4.2-0.9c-2.1-0.4-3.7-0.8-5-1.2
		s-2.3-1.1-3.2-2.1s-1.3-2.3-1.3-4c0-2.1,0.9-3.8,2.6-5.1c1.7-1.4,4.2-2,7.3-2c1.7,0,3.3,0.2,5,0.7s3,1.1,4,1.9l-1.2,2
		c-1.1-0.8-2.3-1.4-3.7-1.8s-2.8-0.6-4.2-0.6c-2.4,0-4.3,0.4-5.5,1.4c-1.2,0.9-1.8,2.1-1.8,3.6c0,1.2,0.3,2.1,1,2.7s1.6,1.1,2.6,1.4
		c1,0.3,2.4,0.7,4.3,1c2,0.4,3.7,0.8,4.9,1.2c1.2,0.4,2.3,1.1,3.2,2c0.9,0.9,1.3,2.2,1.3,3.9c0,2.2-0.9,3.9-2.7,5.2
		s-4.3,1.9-7.6,1.9C811.9,214.3,809.9,214,808,213.3L808,213.3z"/>
	<path class="st2" d="M831.1,181.1c-0.4-0.4-0.6-0.9-0.6-1.4s0.2-1.1,0.6-1.4c0.4-0.4,0.9-0.6,1.5-0.6s1,0.2,1.5,0.6
		c0.4,0.4,0.6,0.9,0.6,1.4s-0.2,1.1-0.6,1.4c-0.4,0.4-0.9,0.6-1.5,0.6S831.5,181.4,831.1,181.1z M831.3,188h2.5v26.1h-2.5V188z"/>
	<path class="st2" d="M857.3,212.4c-0.6,0.6-1.4,1.1-2.4,1.4s-1.9,0.5-3,0.5c-2.3,0-4-0.6-5.2-1.9c-1.2-1.2-1.8-3-1.8-5.2v-17.1H840
		V188h4.8v-5.7h2.5v5.7h8.3v2.1h-8.3v16.8c0,1.7,0.4,3,1.2,3.9c0.8,0.9,2,1.3,3.6,1.3s3-0.5,4-1.4L857.3,212.4L857.3,212.4z"/>
	<path class="st2" d="M884.7,188l-13.4,29.6c-1,2.3-2.2,3.9-3.5,4.9c-1.3,1-2.9,1.4-4.7,1.4c-1.2,0-2.3-0.2-3.4-0.6
		c-1-0.4-1.9-1-2.7-1.8l1.2-1.9c1.3,1.4,3,2.1,4.8,2.1c1.3,0,2.3-0.4,3.2-1.1s1.7-1.9,2.5-3.6l1.4-3.1l-11.8-26h2.7l10.5,23.4
		l10.5-23.4L884.7,188L884.7,188z"/>
	<path class="st2" d="M916,212.4c-0.6,0.6-1.4,1.1-2.4,1.4s-1.9,0.5-3,0.5c-2.3,0-4-0.6-5.2-1.9c-1.2-1.2-1.8-3-1.8-5.2v-17.1h-4.8
		V188h4.8v-5.7h2.5v5.7h8.3v2.1H906v16.8c0,1.7,0.4,3,1.2,3.9c0.8,0.9,2,1.3,3.6,1.3s3-0.5,4-1.4L916,212.4L916,212.4z"/>
	<path class="st2" d="M925.5,212.6c-2-1.1-3.5-2.7-4.7-4.7s-1.7-4.3-1.7-6.8s0.6-4.8,1.7-6.8s2.7-3.6,4.7-4.7c2-1.1,4.2-1.7,6.7-1.7
		s4.7,0.6,6.7,1.7c2,1.1,3.5,2.7,4.7,4.7c1.1,2,1.7,4.3,1.7,6.8s-0.6,4.8-1.7,6.8s-2.7,3.6-4.7,4.7s-4.2,1.7-6.7,1.7
		S927.5,213.7,925.5,212.6z M937.5,210.6c1.6-0.9,2.8-2.2,3.8-3.9s1.4-3.6,1.4-5.7s-0.5-4-1.4-5.7s-2.2-3-3.8-3.9s-3.4-1.4-5.4-1.4
		s-3.8,0.5-5.4,1.4c-1.6,0.9-2.8,2.2-3.8,3.9s-1.4,3.6-1.4,5.7s0.5,4,1.4,5.7s2.2,3,3.8,3.9s3.4,1.4,5.4,1.4
		S935.9,211.6,937.5,210.6z"/>
	<path class="st2" d="M956.5,212.6c-2-1.1-3.5-2.7-4.7-4.7c-1.1-2-1.7-4.3-1.7-6.8s0.6-4.8,1.7-6.8s2.7-3.6,4.7-4.7s4.2-1.7,6.7-1.7
		s4.7,0.6,6.7,1.7s3.5,2.7,4.7,4.7c1.1,2,1.7,4.3,1.7,6.8s-0.6,4.8-1.7,6.8s-2.7,3.6-4.7,4.7c-2,1.1-4.2,1.7-6.7,1.7
		S958.5,213.7,956.5,212.6z M968.5,210.6c1.6-0.9,2.8-2.2,3.8-3.9s1.4-3.6,1.4-5.7s-0.5-4-1.4-5.7s-2.2-3-3.8-3.9s-3.4-1.4-5.4-1.4
		s-3.8,0.5-5.4,1.4c-1.6,0.9-2.8,2.2-3.8,3.9s-1.4,3.6-1.4,5.7s0.5,4,1.4,5.7s2.2,3,3.8,3.9s3.4,1.4,5.4,1.4
		S966.9,211.6,968.5,210.6z"/>
	<path class="st2" d="M984,177h2.5v37.1H984V177L984,177z"/>
	<path class="st2" d="M1016.7,189.4c2,1.1,3.5,2.7,4.6,4.7c1.1,2,1.7,4.3,1.7,6.9s-0.6,4.9-1.7,6.9c-1.1,2-2.7,3.6-4.6,4.7
		c-2,1.1-4.2,1.7-6.6,1.7s-4.4-0.6-6.3-1.7s-3.3-2.7-4.4-4.7v6.1H997V177h2.5v16.9c1-1.9,2.5-3.4,4.3-4.5s4-1.6,6.2-1.6
		C1012.5,187.8,1014.7,188.4,1016.7,189.4L1016.7,189.4z M1015.4,210.6c1.6-0.9,2.9-2.2,3.8-3.9s1.4-3.6,1.4-5.7s-0.5-4-1.4-5.7
		s-2.2-3-3.8-3.9c-1.6-0.9-3.4-1.4-5.4-1.4s-3.8,0.5-5.4,1.4c-1.6,0.9-2.8,2.2-3.8,3.9s-1.4,3.6-1.4,5.7s0.5,4,1.4,5.7
		s2.2,3,3.8,3.9s3.4,1.4,5.4,1.4S1013.8,211.5,1015.4,210.6z"/>
	<path class="st2" d="M1034.3,212.6c-2-1.1-3.5-2.7-4.7-4.7s-1.7-4.3-1.7-6.8s0.6-4.8,1.7-6.8s2.7-3.6,4.7-4.7
		c2-1.1,4.2-1.7,6.7-1.7s4.7,0.6,6.7,1.7c2,1.1,3.5,2.7,4.7,4.7c1.1,2,1.7,4.3,1.7,6.8s-0.6,4.8-1.7,6.8s-2.7,3.6-4.7,4.7
		c-2,1.1-4.2,1.7-6.7,1.7S1036.3,213.7,1034.3,212.6z M1046.3,210.6c1.6-0.9,2.8-2.2,3.8-3.9s1.4-3.6,1.4-5.7s-0.5-4-1.4-5.7
		s-2.2-3-3.8-3.9s-3.4-1.4-5.4-1.4s-3.8,0.5-5.4,1.4c-1.6,0.9-2.8,2.2-3.8,3.9s-1.4,3.6-1.4,5.7s0.5,4,1.4,5.7s2.2,3,3.8,3.9
		s3.4,1.4,5.4,1.4S1044.7,211.6,1046.3,210.6z"/>
	<path class="st2" d="M1077.4,214.1l-8.9-11.6l-8.9,11.6h-2.8l10.3-13.4l-9.8-12.6h2.8l8.4,10.9l8.4-10.9h2.8l-9.8,12.6l10.5,13.4
		H1077.4L1077.4,214.1z"/>
</g>
</svg>
